<?xml version="1.0" standalone="no"?><!DOCTYPE svg PUBLIC "-//W3C//DTD SVG 1.1//EN" "http://www.w3.org/Graphics/SVG/1.1/DTD/svg11.dtd"><svg t="1572865460588" class="icon" viewBox="0 0 1024 1024" version="1.1" xmlns="http://www.w3.org/2000/svg" p-id="4732" xmlns:xlink="http://www.w3.org/1999/xlink" width="128" height="128"><defs><style type="text/css"></style></defs><path d="M284.08 503.31h159.77c32.97 0 59.77-26.81 59.77-59.77V283.75c0-120.79-98.71-219.06-220.04-219.06-58.65 0-113.83 22.98-155.38 64.69-41.31 41.48-63.92 96.31-63.68 154.37 0.01 121.06 98.5 219.56 219.56 219.56z m-0.48-379.43c88.7 0 160.86 71.72 160.86 159.88v159.78c0 0.32-0.26 0.58-0.58 0.58H283.6c-88.42 0-160.36-71.94-160.36-160.36-0.01-88.17 71.93-159.88 160.36-159.88zM64.3 740.61c-0.24 58.06 22.37 112.89 63.68 154.37 41.55 41.71 96.72 64.69 155.38 64.69 121.33 0 220.04-98.27 220.04-219.06V580.83c0-32.96-26.81-59.77-59.77-59.77H283.85c-121.06 0-219.55 98.49-219.55 219.55z m58.7 0c0-88.42 71.94-160.36 160.36-160.36h160.28c0.32 0 0.58 0.26 0.58 0.58v159.78c0 88.16-72.16 159.88-160.86 159.88-88.42 0-160.36-71.72-160.36-159.88zM739.34 521.04H579.57c-32.97 0-59.77 26.81-59.77 59.77v159.78c0 120.79 98.71 219.06 220.04 219.06 58.65 0 113.83-22.98 155.38-64.69 41.31-41.48 63.92-96.31 63.68-154.37-0.01-121.06-98.5-219.55-219.56-219.55z m0.49 379.43c-88.7 0-160.86-71.72-160.86-159.88V580.81c0-0.32 0.26-0.58 0.58-0.58h160.28c88.42 0 160.36 71.94 160.36 160.36 0 88.16-71.94 159.88-160.36 159.88zM959.69 283.57c0.24-58.06-22.37-112.89-63.68-154.37-41.55-41.71-96.72-64.69-155.38-64.69-121.33 0-220.04 98.27-220.04 219.06v159.78c0 32.96 26.81 59.77 59.77 59.77h159.77c121.07 0.01 219.56-98.49 219.56-219.55z m-58.7 0c0 88.42-71.94 160.36-160.36 160.36H580.35a0.58 0.58 0 0 1-0.58-0.58V283.57c0-88.16 72.16-159.88 160.86-159.88 88.42 0.01 160.36 71.72 160.36 159.88z" p-id="4733" fill="#707070"></path></svg>