<?xml version="1.0" standalone="no"?><!DOCTYPE svg PUBLIC "-//W3C//DTD SVG 1.1//EN" "http://www.w3.org/Graphics/SVG/1.1/DTD/svg11.dtd"><svg t="1572865385614" class="icon" viewBox="0 0 1024 1024" version="1.1" xmlns="http://www.w3.org/2000/svg" p-id="2175" xmlns:xlink="http://www.w3.org/1999/xlink" width="128" height="128"><defs><style type="text/css"></style></defs><path d="M797.25568 163.84H226.74432C199.80288 163.84 179.2 184.41216 179.2 211.31264v601.36448c0 26.91072 20.60288 47.47776 47.54432 47.47776h570.51136c26.94656 0 47.54432-20.57216 47.54432-47.47776V211.31264c0-26.90048-20.59776-47.47264-47.54432-47.47264z m-95.08352 253.2096c-6.33344 79.1296-104.59648 142.42816-190.17216 142.42816-85.57568 0-183.8336-63.29856-190.17216-142.42816-19.01568-3.16928-31.6928-18.99008-31.6928-39.56736 0-22.15424 17.4336-39.56736 39.61856-39.56736s39.61856 17.408 39.61856 39.56736c0 12.66176-6.33856 23.74144-15.8464 31.65184 0 64.88576 88.74496 118.69184 158.47424 118.69184s158.47424-53.80608 158.47424-118.69184c-9.50784-7.9104-15.8464-18.99008-15.8464-31.65184 0-22.15424 17.4336-39.56736 39.61344-39.56736 22.19008 0 39.62368 17.408 39.62368 39.56736 0.00512 18.9952-14.2592 34.816-31.6928 39.56736z" fill="#B2B2B2" p-id="2176"></path></svg>