<?xml version="1.0" standalone="no"?><!DOCTYPE svg PUBLIC "-//W3C//DTD SVG 1.1//EN" "http://www.w3.org/Graphics/SVG/1.1/DTD/svg11.dtd"><svg t="1572858533566" class="icon" viewBox="0 0 1050 1024" version="1.1" xmlns="http://www.w3.org/2000/svg" p-id="2062" xmlns:xlink="http://www.w3.org/1999/xlink" width="131.25" height="128"><defs><style type="text/css"></style></defs><path d="M365.700332 949.300513V735.179487a81.394872 81.394872 0 0 1 81.394872-81.394872h131.282051a81.394872 81.394872 0 0 1 81.394872 81.394872v214.121026h181.458051c28.619487 0 52.512821-25.416205 52.512821-57.632821V610.592821a28.882051 28.882051 0 0 1 57.764103 0V891.667692c0 63.356718-48.968205 115.396923-110.276924 115.396923H190.097461c-61.308718 0-110.276923-52.040205-110.276924-115.396923V610.592821a28.882051 28.882051 0 0 1 57.764103 0V891.667692c0 32.216615 23.91959 57.632821 52.512821 57.632821h175.655384z m57.764103 0h178.54359V735.179487a23.630769 23.630769 0 0 0-23.63077-23.630769h-131.282051a23.630769 23.630769 0 0 0-23.630769 23.630769v214.121026zM244.133153 57.764103A47.261538 47.261538 0 0 0 200.074896 87.853949l-140.891897 361.550769A21.005128 21.005128 0 0 0 78.770281 478.024205h40.96a59.602051 59.602051 0 0 0 55.322256-37.389128 91.713641 91.713641 0 0 1 168.618667-3.80718l9.189744 20.217436c5.77641 12.786872 18.563282 21.005128 32.610461 21.005129 16.01641 0 30.772513-8.769641 38.439385-22.843077l13.96841-25.6a93.157744 93.157744 0 0 1 169.32759 12.786871l3.885949 10.712616a37.861744 37.861744 0 0 0 71.154871 0l3.938462-10.712616a87.722667 87.722667 0 0 1 163.84-2.678153l0.36759 0.918974a59.602051 59.602051 0 0 0 55.322256 37.415385h40.96a21.005128 21.005128 0 0 0 19.587282-28.645744l-140.891897-361.550769A47.261538 47.261538 0 0 0 781.339307 57.764103H244.133153z m0-57.764103h537.206154a105.025641 105.025641 0 0 1 97.857641 66.901333l140.891897 361.55077a78.769231 78.769231 0 0 1-73.386667 107.362461h-40.986256a117.366154 117.366154 0 0 1-108.937846-73.675487l-0.36759-0.918974a29.958564 29.958564 0 0 0-55.95241 0.918974l-3.912205 10.712615a95.625846 95.625846 0 0 1-179.725128 0l-3.912206-10.712615a35.393641 35.393641 0 0 0-64.328205-4.857436l-13.96841 25.6a101.533538 101.533538 0 0 1-89.140513 52.932923 93.604103 93.604103 0 0 1-85.202051-54.875897l-9.189744-20.217436a33.949538 33.949538 0 0 0-62.411487 1.417846 117.366154 117.366154 0 0 1-108.91159 73.675487H78.770281a78.769231 78.769231 0 0 1-73.386667-107.388718L146.249255 66.875077A105.025641 105.025641 0 0 1 244.133153 0z" p-id="2063"></path></svg>