<svg class="icon" viewBox="0 0 1024 1024" xmlns="http://www.w3.org/2000/svg" width="48" height="48"><defs><style/></defs><path d="M303.616 254.464l-62.464 174.08h126.464l-61.952-174.08h-2.048zm400.896-12.8h-68.608v284.16h67.584c47.616 0 82.432-11.776 104.448-34.816 21.504-23.04 32.768-58.88 32.768-107.008 0-48.64-10.752-84.48-32.256-107.52-22.528-23.552-56.832-34.816-103.936-34.816zM960 0H64C28.672 0 0 28.672 0 64v640c0 35.328 28.672 64 64 64h896c35.328 0 64-28.672 64-64V64c0-35.328-28.672-64-64-64zM419.84 576l-35.328-98.816H223.744L188.416 576h-60.928l144.384-384.512h65.024L481.28 576h-61.44zm431.104-51.712C819.712 558.592 773.632 576 713.216 576H578.56V191.488h136.192c59.904 0 105.984 17.408 137.216 52.224C881.152 275.968 896 322.56 896 383.488c0 60.416-14.848 107.008-45.056 140.8zM64 1024h896c35.328 0 64-28.672 64-64s-28.672-64-64-64H64c-35.328 0-64 28.672-64 64s28.672 64 64 64z"/></svg>