<?xml version="1.0" standalone="no"?><!DOCTYPE svg PUBLIC "-//W3C//DTD SVG 1.1//EN" "http://www.w3.org/Graphics/SVG/1.1/DTD/svg11.dtd"><svg t="1578488415670" class="icon" viewBox="0 0 1024 1024" version="1.1" xmlns="http://www.w3.org/2000/svg" p-id="12892" xmlns:xlink="http://www.w3.org/1999/xlink" width="48" height="48"><defs><style type="text/css"></style></defs><path d="M303.616 254.464l-62.464 174.08h126.464l-61.952-174.08h-2.048z m400.896-12.8h-68.608v284.16h67.584c47.616 0 82.432-11.776 104.448-34.816 21.504-23.04 32.768-58.88 32.768-107.008 0-48.64-10.752-84.48-32.256-107.52-22.528-23.552-56.832-34.816-103.936-34.816zM960 0h-896C28.672 0 0 28.672 0 64v640c0 35.328 28.672 64 64 64h896c35.328 0 64-28.672 64-64v-640C1024 28.672 995.328 0 960 0zM419.84 576l-35.328-98.816H223.744l-35.328 98.816H127.488l144.384-384.512h65.024L481.28 576H419.84z m431.104-51.712c-31.232 34.304-77.312 51.712-137.728 51.712H578.56V191.488h136.192c59.904 0 105.984 17.408 137.216 52.224 29.184 32.256 44.032 78.848 44.032 139.776 0 60.416-14.848 107.008-45.056 140.8zM64 1024h896c35.328 0 64-28.672 64-64s-28.672-64-64-64h-896C28.672 896 0 924.672 0 960S28.672 1024 64 1024z" p-id="12893"></path></svg>