<?xml version="1.0" standalone="no"?><!DOCTYPE svg PUBLIC "-//W3C//DTD SVG 1.1//EN" "http://www.w3.org/Graphics/SVG/1.1/DTD/svg11.dtd"><svg t="1572865875776" class="icon" viewBox="0 0 1024 1024" version="1.1" xmlns="http://www.w3.org/2000/svg" p-id="5959" xmlns:xlink="http://www.w3.org/1999/xlink" width="128" height="128"><defs><style type="text/css"></style></defs><path d="M908.629333 743.765333H257.877333c-19.285333 0-37.376-7.509333-50.858666-21.162666-13.482667-13.653333-20.992-31.573333-20.821334-50.858667l2.389334-479.232c0-19.114667-6.656-31.914667-39.765334-37.205333h-0.170666l-95.573334-16.384c-9.216-1.536-15.530667-10.410667-13.994666-19.626667 1.536-9.216 10.410667-15.530667 19.626666-13.994667l95.402667 16.384c45.397333 7.168 68.437333 31.061333 68.437333 70.997334L220.16 672.085333c0 10.069333 3.754667 19.456 10.922667 26.453334 7.168 7.168 16.554667 11.093333 26.624 11.093333h650.752c9.386667 0 17.066667 7.68 17.066666 17.066667s-7.509333 17.066667-16.896 17.066666z" fill="#707070" p-id="5960"></path><path d="M859.989333 645.802667l-602.624-1.877334c-18.944-0.170667-36.693333-7.509333-50.005333-20.992-13.312-13.482667-20.48-31.232-20.48-50.176l1.877333-353.962666L870.570667 269.653333c30.890667 1.194667 55.125333 26.282667 55.125333 57.173334V580.266667c0 36.181333-29.525333 65.536-65.706667 65.536zM257.706667 609.792l602.453333 1.877333c17.408 0 31.573333-14.165333 31.573333-31.402666V326.826667c0-12.458667-9.898667-22.698667-22.357333-23.04h-0.682667l-645.632-48.128-1.536 317.44c0 9.728 3.754667 18.944 10.581334 25.941333 6.485333 6.826667 15.701333 10.752 25.6 10.752z" fill="#707070" p-id="5961"></path><path d="M324.096 800.085333m-63.658667 0a63.658667 63.658667 0 1 0 127.317334 0 63.658667 63.658667 0 1 0-127.317334 0Z" fill="#707070" p-id="5962"></path><path d="M324.096 880.810667c-44.544 0-80.725333-36.181333-80.725333-80.725334s36.181333-80.725333 80.725333-80.725333c44.544 0 80.725333 36.181333 80.725333 80.725333s-36.181333 80.725333-80.725333 80.725334z m0-127.317334c-25.770667 0-46.592 20.821333-46.592 46.592s20.821333 46.592 46.592 46.592 46.592-20.821333 46.592-46.592-20.821333-46.592-46.592-46.592z" fill="#707070" p-id="5963"></path><path d="M812.714667 800.085333m-63.658667 0a63.658667 63.658667 0 1 0 127.317333 0 63.658667 63.658667 0 1 0-127.317333 0Z" fill="#707070" p-id="5964"></path><path d="M812.714667 880.810667c-44.544 0-80.725333-36.181333-80.725334-80.725334s36.181333-80.725333 80.725334-80.725333 80.725333 36.181333 80.725333 80.725333-36.181333 80.725333-80.725333 80.725334z m0-127.317334c-25.770667 0-46.592 20.821333-46.592 46.592s20.821333 46.592 46.592 46.592 46.592-20.821333 46.592-46.592-20.821333-46.592-46.592-46.592z" fill="#707070" p-id="5965"></path><path d="M710.314667 417.962667H362.496c-9.386667 0-17.066667-7.68-17.066667-17.066667s7.68-17.066667 17.066667-17.066667h347.818667c9.386667 0 17.066667 7.68 17.066666 17.066667s-7.68 17.066667-17.066666 17.066667zM710.314667 516.096H362.496c-9.386667 0-17.066667-7.68-17.066667-17.066667s7.68-17.066667 17.066667-17.066666h347.818667c9.386667 0 17.066667 7.68 17.066666 17.066666s-7.68 17.066667-17.066666 17.066667z" fill="#707070" p-id="5966"></path></svg>