<svg class="icon" viewBox="0 0 1024 1024" xmlns="http://www.w3.org/2000/svg" width="48" height="48"><defs><style/></defs><path d="M366.554 16.452H92.463C41.932 16.452.589 57.796.589 108.326v274.09c0 50.531 41.344 91.874 91.874 91.874h274.09c50.531 0 91.874-41.344 91.874-91.874v-274.09c0-50.53-41.344-91.874-91.873-91.874zm0 549.713H92.463c-50.531 0-91.874 39.812-91.874 90.342v275.622c0 50.53 41.344 91.873 91.874 91.873h274.09c50.531 0 91.874-41.343 91.874-91.873v-274.09c0-50.53-41.344-91.874-91.873-91.874zM916.266 16.452h-274.09c-50.532 0-91.874 41.344-91.874 91.874v274.09c0 50.531 41.343 91.874 91.873 91.874h274.09c50.532 0 91.874-41.344 91.874-91.874v-274.09c.002-50.53-41.342-91.874-91.873-91.874zm0 549.713h-274.09c-50.532 0-91.874 39.812-91.874 90.342v275.622c0 50.53 41.343 91.873 91.873 91.873h274.09c50.532 0 91.874-41.343 91.874-91.873v-274.09c.002-50.53-41.342-91.874-91.873-91.874z"/></svg>