<svg class="icon" viewBox="0 0 1024 1024" xmlns="http://www.w3.org/2000/svg" width="48" height="48"><defs><style/></defs><path d="M935.254 760.747c0 158.72-72.746 158.72-423.254 158.72-350.506 0-423.254 0-423.254-158.72 0-171.946 191.786-515.84 423.254-515.84 231.466 0 423.254 343.894 423.254 515.84zM512 317.653c-99.2 0-178.56 79.36-178.56 178.56S412.8 674.773 512 674.773s178.56-79.36 178.56-178.56S611.2 317.653 512 317.653zM141.654 449.921C214.4 330.881 340.054 205.227 512 205.227s310.826 138.88 370.346 244.694c33.066 52.906 92.586 46.294 119.04 0 19.84-33.066 72.746-330.666-489.386-330.666-562.134 0-509.226 304.214-489.386 330.666 39.68 52.906 105.814 26.454 119.04 0z"/></svg>