<svg class="icon" viewBox="0 0 1024 1024" xmlns="http://www.w3.org/2000/svg" width="48" height="48"><defs><style/></defs><path d="M395.776 887.04c-21.76-4.864-35.072-8.96-39.68-12.288-5.632-4.096-9.728-16.128-12.544-36.608a193.934 193.934 0 0 1-1.536-17.152V812.8c-3.072 7.168-9.728 11.776-18.688 11.776h-61.696c-12.288 0-20.48-8.448-20.48-20.992v-125.44c0-12.544 8.192-20.992 20.48-20.992h61.696c8.96 0 15.872 4.352 18.688 11.776 1.28 2.816 1.792 6.144 1.792 9.216v104.192a435.005 435.005 0 0 1 3.072-22.784c3.072-18.432 10.752-32.256 22.784-41.728 13.056-9.984 27.648-17.408 43.008-22.528 16.384-5.632 33.536-10.496 50.944-15.104 1.024-.256 2.048-.512 3.328-.768v-64.256c0-12.544 8.192-20.992 20.48-20.992h62.464c0-3.072-.256-6.4-.512-9.728-1.024-12.032-4.864-21.248-11.776-27.648-7.424-6.912-15.36-13.824-23.296-20.224-4.352-4.096-8.192-8.96-10.752-14.592-1.792-3.84-3.584-7.68-5.12-11.52h-11.008c-12.288 0-20.48-8.448-20.48-20.992v-25.856c-3.328-4.352-6.4-10.752-8.704-18.944-2.56-8.448-3.584-16.128-2.816-22.784.512-6.144 2.048-12.032 4.096-17.664 2.304-5.632 5.376-11.008 9.216-15.616a352.575 352.575 0 0 1 3.072-56.832c.512-4.608 1.28-9.216 2.048-14.08-4.608-3.584-7.168-9.472-7.168-16.384v-62.464c0-12.544 8.192-20.992 20.48-20.992h30.464c6.144-6.912 13.056-13.056 20.48-18.432 21.504-16.128 46.592-26.88 72.96-30.976 11.776-2.048 23.808-2.816 35.84-3.072 14.336 0 28.416 1.792 42.24 5.12l.512.256v-57.344H119.552l.512 709.12H56.576v85.76h466.688c-17.408-2.048-34.304-4.608-51.2-7.168-28.928-4.608-54.528-9.216-76.288-14.08zM241.408 238.848c0-12.544 8.192-20.992 20.48-20.992h61.696c8.96 0 15.872 4.352 18.688 11.776 1.28 2.816 1.792 6.144 1.792 9.216v62.72c0 3.072-.512 6.4-1.792 9.216-3.072 7.168-9.728 11.776-18.688 11.776h-61.696c-12.288 0-20.48-8.448-20.48-20.992v-62.72zm0 188.16c0-12.544 8.192-20.992 20.48-20.992h61.696c8.96 0 15.872 4.352 18.688 11.776 1.28 2.816 1.792 6.144 1.792 9.216v62.72c0 3.072-.512 6.4-1.792 9.216-3.072 7.168-9.728 11.776-18.688 11.776h-61.696c-12.288 0-20.48-8.448-20.48-20.992v-62.72zm0 0"/><path d="M965.376 772.096c-1.024-9.472-2.816-18.688-5.632-27.648-4.096-12.288-12.032-22.784-22.528-30.464-11.008-7.936-23.296-14.336-36.096-18.944-13.824-5.12-27.648-9.472-41.984-13.056-13.568-3.328-26.88-7.68-39.936-12.544-13.312-5.376-23.808-11.52-31.744-18.176-7.936-6.656-13.568-13.824-16.896-21.248-3.328-7.168-5.376-14.592-5.888-22.272-.512-7.424 0-14.848 1.536-22.016.768-5.12 2.304-9.984 4.608-14.848 1.792-3.84 4.352-7.424 7.168-10.496 3.072-3.072 6.656-5.888 10.24-8.192 4.352-2.816 8.448-6.144 12.544-9.728 4.352-4.096 8.192-8.704 10.752-14.08 3.328-6.144 5.888-12.288 8.448-18.432 2.56-7.424 4.608-14.848 6.656-22.272 5.12-1.536 9.984-4.352 13.824-7.936 4.352-4.096 7.936-8.704 10.752-14.08 3.328-6.144 5.376-14.08 6.912-24.064 1.024-6.4.768-13.056-.512-19.456-1.024-4.608-2.56-8.96-4.864-13.056-1.792-3.584-4.608-6.656-8.192-8.704.512-19.2-.512-38.656-3.584-57.6-2.816-17.664-6.912-35.328-12.8-52.224-6.144-18.432-15.36-35.84-27.648-50.944-6.144-7.424-13.312-14.08-21.248-19.968-9.472-6.912-19.456-12.8-30.208-17.664-11.52-5.376-23.552-9.728-35.84-12.8l-.512-.256c-13.312-3.328-27.136-5.12-40.704-5.12-11.52 0-23.296 1.024-34.816 2.816-25.6 4.096-49.664 14.336-70.4 29.952-7.168 5.12-13.824 11.264-19.712 17.664h-1.28c-4.096 4.608-7.936 9.216-11.52 14.336-9.984 14.336-17.408 30.208-22.272 46.848-3.584 11.776-6.4 23.552-8.448 35.584.256.256.768.512 1.024.768-.768 4.352-1.536 8.704-2.048 12.8a327.77 327.77 0 0 0-3.072 54.784c-3.84 4.608-6.656 9.728-8.704 15.104-2.048 5.376-3.584 11.008-4.096 16.896-.768 6.4.256 13.824 2.56 22.016 1.536 5.888 4.096 11.52 7.424 16.64v1.536l.256.256a89.778 89.778 0 0 0 9.472 10.24c3.072 2.304 6.656 4.096 10.24 5.12 2.304 7.424 4.864 14.848 7.424 22.272 1.024 2.56 2.048 4.864 3.072 7.168h1.28c1.536 3.84 3.328 7.424 5.12 11.264 2.56 5.376 5.888 10.24 10.24 14.08 7.68 6.144 15.104 12.8 22.528 19.456 6.656 6.144 10.496 15.104 11.264 26.624.256 3.328.256 6.4.512 9.472.256 3.84.256 7.424.256 10.752 0 6.144-1.024 12.288-3.328 17.92-2.56 6.656-6.656 12.544-11.776 17.408-5.632 5.632-13.568 11.776-23.808 18.176-12.8 7.936-26.88 14.08-41.472 17.92l-3.072.768c-16.896 4.352-33.28 9.216-49.408 14.336-15.104 4.864-29.184 12.032-41.472 21.76-11.776 9.216-19.2 22.528-22.016 40.448-1.28 7.68-2.304 14.848-3.072 22.016v20.48c0 3.072-.512 6.144-1.792 8.96v7.936c.256 5.632.512 11.264 1.28 16.64 2.816 19.712 6.656 31.488 12.032 35.328 4.352 3.328 17.152 7.168 38.144 11.776 20.992 4.608 45.568 8.96 73.472 13.312 16.128 2.56 32.768 4.864 49.408 6.912 12.032 1.536 24.32 2.816 36.608 4.352 29.44 3.072 54.784 4.864 76.288 4.864 14.08 0 30.976-.768 50.176-2.304 19.2-1.536 39.424-3.328 59.904-5.888 20.48-2.56 41.216-5.12 62.208-8.192 20.736-3.072 39.424-6.4 56.32-9.984 14.336-3.072 28.416-6.656 42.24-11.264 11.52-3.84 18.432-7.424 20.992-10.752 3.328-5.12 6.144-13.056 7.68-23.04 1.792-10.496 2.56-21.248 2.56-32 .768-11.52.256-22.784-1.024-34.048zM342.272 812.8c1.28-2.816 1.792-6.144 1.792-9.216v-21.248c-1.024 8.704-1.536 17.152-1.792 24.832v5.632zm0 0"/></svg>