<?xml version="1.0" standalone="no"?><!DOCTYPE svg PUBLIC "-//W3C//DTD SVG 1.1//EN" "http://www.w3.org/Graphics/SVG/1.1/DTD/svg11.dtd"><svg t="1581214931155" class="icon" viewBox="0 0 1024 1024" version="1.1" xmlns="http://www.w3.org/2000/svg" p-id="2143" width="48" height="48" xmlns:xlink="http://www.w3.org/1999/xlink"><defs><style type="text/css"></style></defs><path d="M807.3856 709.761829c-54.3872 0-98.461257 44.086857-98.461257 98.485028 0 54.398171 44.074057 98.4832 98.461257 98.4832 54.385371 0 98.461257-44.086857 98.461257-98.4832-0.001829-54.4-44.075886-98.486857-98.461257-98.485028z m186.461257-237.129143l-88.001828-156.807315c-17.998629-21.697829-30.153143-39.392914-59.075658-39.392914h-137.846857V158.250057c0-21.697829-17.691429-39.392914-39.383771-39.392914H39.383771C17.691429 118.857143 0 136.552229 0 158.250057v590.902857c0 21.699657 17.691429 39.394743 39.383771 39.394743h78.537143c9.658514-67.863771 67.580343-120.4096 138.079086-120.4096s128.420571 52.545829 138.079086 120.411429l275.2256-0.040229c9.693257-67.858286 67.616914-120.3712 138.080914-120.3712 70.498743 0 128.420571 52.547657 138.079086 120.411429h39.151543c21.692343 0 39.383771-17.696914 39.383771-39.394743V552.186514c0-37.317486-30.153143-79.555657-30.153143-79.555657z m-245.540571 79.553828V355.218286h96.347428c6.345143 0 15.1552 9.309257 15.1552 9.309257l82.920229 154.190628c7.343543 10.810514 15.3088 23.621486 15.3088 33.468343H748.306286zM256 709.761829c-54.3872 0-98.461257 44.086857-98.461257 98.485028 0 54.398171 44.075886 98.4832 98.461257 98.4832 54.385371 0 98.461257-44.086857 98.461257-98.4832 0-54.4-44.075886-98.486857-98.461257-98.485028z" p-id="2144" fill="#8a8a8a"></path></svg>