<?xml version="1.0" standalone="no"?><!DOCTYPE svg PUBLIC "-//W3C//DTD SVG 1.1//EN" "http://www.w3.org/Graphics/SVG/1.1/DTD/svg11.dtd"><svg t="1579875870122" class="icon" viewBox="0 0 1024 1024" version="1.1" xmlns="http://www.w3.org/2000/svg" p-id="3618" width="64" height="64" xmlns:xlink="http://www.w3.org/1999/xlink"><defs><style type="text/css"></style></defs><path d="M892.992 420.629333a60.330667 60.330667 0 0 0-49.002667-41.28l-191.808-27.882666-85.76-173.802667a60.693333 60.693333 0 0 0-108.821333 0l-85.76 173.802667-191.829333 27.861333a60.672 60.672 0 0 0-33.642667 103.509333l138.816 135.274667-32.789333 191.04a60.693333 60.693333 0 0 0 88.064 63.957333L512 782.933333l171.562667 90.197334a60.309333 60.309333 0 0 0 63.893333-4.629334 60.245333 60.245333 0 0 0 24.128-59.349333l-32.768-191.018667 138.816-135.296a60.309333 60.309333 0 0 0 15.36-62.208z" fill="#bfbfbf" p-id="3619"></path></svg>