<svg class="icon" viewBox="0 0 1126 1024" xmlns="http://www.w3.org/2000/svg" width="52.781" height="48"><defs><style/></defs><path d="M1055.009 1023.493H77.083S0 1036.332 0 932.783V93.374S1.1.537 96.26.537h343.248S480-8.213 514.953 45.405c33.341 51.255 51.918 83.558 51.918 83.558s13.189 14.752 39.942 14.177c-24.64.575 441.17 0 441.17 0s77.97-8.126 77.97 78.758v715.674s11.552 85.909-70.944 85.909zm-71.945-656.318a39.392 39.392 0 0 0-39.38-39.379h-760.94a39.392 39.392 0 0 0-39.38 39.38v3.15a39.392 39.392 0 0 0 39.38 39.379h760.928a39.392 39.392 0 0 0 39.38-39.38v-3.15z"/></svg>