<?xml version="1.0" standalone="no"?><!DOCTYPE svg PUBLIC "-//W3C//DTD SVG 1.1//EN" "http://www.w3.org/Graphics/SVG/1.1/DTD/svg11.dtd"><svg t="1578488448910" class="icon" viewBox="0 0 1126 1024" version="1.1" xmlns="http://www.w3.org/2000/svg" p-id="13637" xmlns:xlink="http://www.w3.org/1999/xlink" width="52.78125" height="48"><defs><style type="text/css"></style></defs><path d="M1055.008836 1023.493085H77.082952S0 1036.33191 0 932.783727V93.372132S1.100113 0.537555 96.25993 0.537555h343.24791s40.491677-8.750903 75.445283 44.867129c33.34094 51.255288 51.917856 83.55862 51.917856 83.55862s13.188861 14.751522 39.941621 14.176463c-24.640042 0.575059 441.170512 0 441.170512 0s77.970544-8.125838 77.970543 78.758124v715.67383s11.551192 85.908862-70.944819 85.908863z m-71.944922-656.317707a39.391564 39.391564 0 0 0-39.379062-39.379062H182.743852a39.391564 39.391564 0 0 0-39.379062 39.379062v3.150325a39.391564 39.391564 0 0 0 39.379062 39.379063h760.928499a39.391564 39.391564 0 0 0 39.379062-39.379063v-3.150325z" p-id="13638"></path></svg>