<svg class="icon" viewBox="0 0 1024 1024" xmlns="http://www.w3.org/2000/svg" width="48" height="48"><defs><style/></defs><path d="M919.096 1.803H106.384c-57.741 0-104.67 46.929-104.67 104.671V919.33c0 57.742 46.928 104.67 104.67 104.67h812.784c57.742 0 104.67-46.928 104.67-104.67V106.402c-.07-57.742-47.001-104.599-104.742-104.599zm-92.56 290.44l-2.162 1.153-.289 2.45C801.808 449.61 667.945 565.597 512.74 565.597c-155.203 0-289.07-115.988-311.345-269.75l-.36-2.45-2.163-1.154c-15.427-9.156-24.654-24.655-24.654-41.667 0-26.96 21.915-48.876 48.947-48.876 26.96 0 48.876 21.915 48.876 48.876 0 14.201-6.416 27.465-18.166 37.196l-2.308 1.802.505 2.884c20.545 128.964 130.19 222.534 260.668 222.534s240.123-93.641 260.667-222.534l.506-2.812-2.235-1.802c-11.822-9.804-18.166-22.996-18.166-37.197 0-26.96 21.915-48.876 48.875-48.876 27.033 0 48.948 21.914 48.948 48.876-.073 16.942-9.3 32.441-24.8 41.596z"/></svg>