<?xml version="1.0" standalone="no"?><!DOCTYPE svg PUBLIC "-//W3C//DTD SVG 1.1//EN" "http://www.w3.org/Graphics/SVG/1.1/DTD/svg11.dtd"><svg t="1578487681792" class="icon" viewBox="0 0 1146 1024" version="1.1" xmlns="http://www.w3.org/2000/svg" p-id="2069" xmlns:xlink="http://www.w3.org/1999/xlink" width="53.71875" height="48"><defs><style type="text/css"></style></defs><path d="M1047.182941 797.163611l-141.189063-81.510368a20.357112 20.357112 0 0 0-27.770869 7.536637l-25.47711 44.154863a20.479992 20.479992 0 0 0 7.413757 27.934708l141.189063 81.510368a20.357112 20.357112 0 0 0 27.770869-7.536637l25.47711-44.154862a20.561912 20.561912 0 0 0-7.413757-27.893749zM878.100129 293.110052a20.357112 20.357112 0 0 0 27.770869 7.577597l141.189063-81.551327a20.479992 20.479992 0 0 0 7.372797-27.893749l-25.31327-44.031982a20.357112 20.357112 0 0 0-27.770869-7.577597L860.159656 221.184321a20.479992 20.479992 0 0 0-7.413757 27.893749l25.35423 44.031982z m222.699431 168.959933h-163.839935c-11.263995 0-20.479992 9.215996-20.479992 20.479992v51.199979c0 11.263995 9.215996 20.479992 20.479992 20.479992h163.839935c11.263995 0 20.479992-9.215996 20.479991-20.479992v-51.199979c0-11.263995-9.215996-20.479992-20.479991-20.479992zM706.436837 0.00041a39.444464 39.444464 0 0 0-22.282231 6.799357L230.399908 303.350048H20.479992c-11.263995 0-20.479992 9.215996-20.479992 20.479992v368.639853c0 11.263995 9.215996 20.479992 20.479992 20.479991h209.919916l453.754698 296.550282a40.796144 40.796144 0 0 0 63.365095-34.283506V41.083273C747.519701 17.039763 727.817949 0.00041 706.436837 0.00041z" p-id="2070"></path></svg>