<svg class="icon" viewBox="0 0 1146 1024" xmlns="http://www.w3.org/2000/svg" width="53.719" height="48"><defs><style/></defs><path d="M1047.183 797.164l-141.19-81.51a20.357 20.357 0 0 0-27.77 7.536l-25.477 44.155a20.48 20.48 0 0 0 7.414 27.934l141.189 81.51a20.357 20.357 0 0 0 27.77-7.536l25.478-44.155a20.562 20.562 0 0 0-7.414-27.893zM878.1 293.11a20.357 20.357 0 0 0 27.771 7.578l141.19-81.552a20.48 20.48 0 0 0 7.372-27.893l-25.313-44.032a20.357 20.357 0 0 0-27.771-7.578l-141.19 81.551a20.48 20.48 0 0 0-7.413 27.894L878.1 293.11zm222.7 168.96H936.96c-11.264 0-20.48 9.216-20.48 20.48v51.2c0 11.264 9.216 20.48 20.48 20.48h163.84c11.264 0 20.48-9.216 20.48-20.48v-51.2c0-11.264-9.216-20.48-20.48-20.48zM706.437 0a39.444 39.444 0 0 0-22.282 6.8L230.4 303.35H20.48C9.216 303.35 0 312.566 0 323.83v368.64c0 11.264 9.216 20.48 20.48 20.48H230.4l453.755 296.55a40.796 40.796 0 0 0 63.365-34.283V41.083C747.52 17.04 727.818 0 706.437 0z"/></svg>