<svg class="icon" viewBox="0 0 1050 1024" xmlns="http://www.w3.org/2000/svg" width="131.25" height="128"><defs><style/></defs><path d="M365.7 949.3V735.18a81.395 81.395 0 0 1 81.395-81.395h131.282a81.395 81.395 0 0 1 81.395 81.394v214.122H841.23c28.62 0 52.513-25.417 52.513-57.633V610.593a28.882 28.882 0 0 1 57.764 0v281.075c0 63.356-48.968 115.397-110.277 115.397H190.097c-61.308 0-110.276-52.04-110.276-115.397V610.593a28.882 28.882 0 0 1 57.764 0v281.075c0 32.216 23.92 57.633 52.512 57.633h175.656zm57.764 0h178.544V735.18a23.63 23.63 0 0 0-23.63-23.631H447.094a23.63 23.63 0 0 0-23.63 23.63v214.122zM244.134 57.765a47.262 47.262 0 0 0-44.06 30.09L59.184 449.404a21.005 21.005 0 0 0 19.587 28.62h40.96a59.602 59.602 0 0 0 55.323-37.389 91.714 91.714 0 0 1 168.618-3.807l9.19 20.217c5.776 12.787 18.563 21.005 32.61 21.005 16.017 0 30.773-8.77 38.44-22.843l13.968-25.6a93.158 93.158 0 0 1 169.328 12.787l3.886 10.713a37.862 37.862 0 0 0 71.155 0l3.938-10.713a87.723 87.723 0 0 1 163.84-2.678l.368.92a59.602 59.602 0 0 0 55.322 37.414h40.96a21.005 21.005 0 0 0 19.587-28.645L825.371 87.854a47.262 47.262 0 0 0-44.032-30.09H244.133zm0-57.764h537.205a105.026 105.026 0 0 1 97.858 66.901l140.892 361.551a78.77 78.77 0 0 1-73.387 107.363h-40.986a117.366 117.366 0 0 1-108.938-73.676l-.368-.919a29.959 29.959 0 0 0-55.952.92l-3.912 10.712a95.626 95.626 0 0 1-179.725 0l-3.912-10.713a35.394 35.394 0 0 0-64.329-4.857l-13.968 25.6a101.534 101.534 0 0 1-89.14 52.933 93.604 93.604 0 0 1-85.203-54.876l-9.19-20.218a33.95 33.95 0 0 0-62.41 1.418 117.366 117.366 0 0 1-108.912 73.676H78.77a78.77 78.77 0 0 1-73.386-107.39l140.865-361.55A105.026 105.026 0 0 1 244.133 0z"/></svg>